
<?xml version="1.0" standalone="no"?><!DOCTYPE svg PUBLIC "-//W3C//DTD SVG 1.1//EN" "http://www.w3.org/Graphics/SVG/1.1/DTD/svg11.dtd"><svg t="1600753347844" class="icon" viewBox="0 0 1024 1024" version="1.1" xmlns="http://www.w3.org/2000/svg" p-id="9644" xmlns:xlink="http://www.w3.org/1999/xlink" width="15" height="15"><defs><style type="text/css"></style></defs><path d="M393.846 78.77v315.076H78.77V78.77h315.077m0-78.769H78.77A78.77 78.77 0 0 0 0 78.77v315.076a78.77 78.77 0 0 0 78.77 78.77h315.076a78.77 78.77 0 0 0 78.77-78.77V78.77A78.77 78.77 0 0 0 393.845 0z m0 630.154V945.23H78.77V630.154h315.077m0-78.77H78.77A78.77 78.77 0 0 0 0 630.155V945.23A78.77 78.77 0 0 0 78.77 1024h315.076a78.77 78.77 0 0 0 78.77-78.77V630.155a78.77 78.77 0 0 0-78.77-78.77zM945.231 78.77v472.616H630.154V78.769H945.23m0-78.769H630.154a78.77 78.77 0 0 0-78.77 78.77v472.615a78.77 78.77 0 0 0 78.77 78.769H945.23a78.77 78.77 0 0 0 78.769-78.77V78.77A78.77 78.77 0 0 0 945.23 0z m0 787.692v157.539H630.154V787.692H945.23m0-78.769H630.154a78.77 78.77 0 0 0-78.77 78.77V945.23a78.77 78.77 0 0 0 78.77 78.769H945.23A78.77 78.77 0 0 0 1024 945.23V787.693a78.77 78.77 0 0 0-78.77-78.769z" p-id="9645"></path></svg>
