<?xml version="1.0" encoding="UTF-8"?>
<svg width="160px" height="101px" viewBox="0 0 160 101" version="1.1" xmlns="http://www.w3.org/2000/svg" xmlns:xlink="http://www.w3.org/1999/xlink">
    <g id="页面-1" stroke="none" stroke-width="1" fill="none" fill-rule="evenodd">
        <g id="24_表单管理_新建_其他表单" transform="translate(-702.000000, -464.000000)" fill-rule="nonzero">
            <g id="编组-8" transform="translate(501.000000, 285.000000)">
                <g id="ic_draw" transform="translate(201.000000, 179.000000)">
                    <path d="M152.537497,100.174999 L17.8193868,100.174999 C15.3246227,100.174999 13.3022168,98.1525927 13.3022168,95.6578286 L13.3022168,95.6578286 C62.1375063,89.9822331 110.05499,89.9822331 157.054668,95.6578286 L157.054668,95.6578286 C157.054668,98.152593 155.032261,100.174999 152.537497,100.174999 Z" id="路径" fill="#B9C7DD"></path>
                    <path d="M157.054668,95.9235392 L13.3022168,95.6578231 L29.9626231,67.6247673 L30.0423347,67.4919093 L30.0423347,5.71023855 C30.0422081,4.19575033 30.6437802,2.74325528 31.7146851,1.67235039 C32.78559,0.601445498 34.238085,-1.9963285e-08 35.7525732,-1.9963285e-08 L133.807162,-1.9963285e-08 C135.32165,-1.9963285e-08 136.774145,0.601445498 137.84505,1.67235039 C138.915955,2.74325528 139.517527,4.19575033 139.5174,5.71023855 L139.5174,67.9170413 L157.054668,95.9235392 Z" id="路径" fill="#DCE4F0"></path>
                    <path d="M35.6223746,3.98574331 C34.5955954,3.986895 33.7635136,4.81897678 33.7623619,5.84575601 L33.7623619,62.1775855 C33.7635595,63.2043457 34.5956144,64.0364006 35.6223746,64.0375982 L134.734509,64.0375982 C135.76125,64.0363557 136.593279,63.2043271 136.594522,62.1775855 L136.594522,5.84575601 C136.593325,4.81899541 135.761269,3.98693988 134.734509,3.98574331 L35.6223746,3.98574331 Z" id="路径" fill="#FFFFFF"></path>
                    <path d="M36.2737469,71.4776508 C35.9626141,71.4781792 35.6800575,71.6591937 35.5495147,71.9416163 L30.4159256,83.1016961 C30.3023538,83.3484921 30.3222981,83.6361381 30.4688432,83.8648985 C30.6153883,84.0936589 30.8683531,84.2320363 31.1400272,84.2320363 L139.096697,84.2320363 C139.372972,84.2320363 139.629542,84.0889627 139.774758,83.8539307 C139.919975,83.6188987 139.933125,83.325429 139.809511,83.078351 L134.229466,71.9182712 C134.095183,71.647616 133.818786,71.4767667 133.516651,71.4776508 L36.2737469,71.4776508 Z" id="路径" fill="#B9C7DD"></path>
                    <circle id="椭圆形" fill="#FFFFFF" cx="84.7798676" cy="1.8600127" r="1.19572245"></circle>
                    <path d="M74.1686059,86.3577578 C73.8083719,86.3582117 73.4930643,86.5998488 73.3989642,86.9475755 L72.1112526,91.7304653 C72.0467175,91.9699303 72.0973257,92.2257904 72.2481651,92.4226552 C72.3990046,92.6195199 72.6328857,92.734946 72.8808943,92.734946 L97.3702476,92.734946 C97.6280953,92.734946 97.8700114,92.6102018 98.019536,92.4001355 C98.1690606,92.1900693 98.2077155,91.9206426 98.1232834,91.6770104 L96.467746,86.8941206 C96.3564944,86.5731548 96.0541506,86.3578794 95.7144508,86.3577578 L74.1686059,86.3577578 Z" id="路径" fill="#B9C7DD"></path>
                    <polygon id="路径" fill="#B9C7DD" points="139.51746 66.5618141 139.51746 67.6248526 29.9626304 67.6248526 30.0449887 67.4918821 30.0449887 66.5618141"></polygon>
                    <path d="M125.994979,68.9966385 C125.907257,68.9967488 125.830475,69.0555905 125.807559,69.1402667 L125.493981,70.3049741 C125.478268,70.3632876 125.490593,70.4255924 125.527325,70.4735313 C125.564056,70.5214703 125.621009,70.54958 125.681402,70.54958 L131.644929,70.54958 C131.707718,70.54958 131.766629,70.5192025 131.80304,70.4680482 C131.839451,70.4168938 131.848864,70.3512844 131.828303,70.2919565 L131.425156,69.1272508 C131.398064,69.0490908 131.324438,68.9966682 131.241716,68.9966385 L125.994979,68.9966385 Z" id="路径" fill="#CCCCCC"></path>
                    <path d="M117.287496,68.9966385 C117.199774,68.9967488 117.122992,69.0555905 117.100076,69.1402667 L116.786498,70.3049741 C116.770785,70.3632876 116.78311,70.4255924 116.819842,70.4735313 C116.856573,70.5214703 116.913526,70.54958 116.973919,70.54958 L122.937446,70.54958 C123.000236,70.54958 123.059146,70.5192025 123.095557,70.4680482 C123.131968,70.4168938 123.141381,70.3512844 123.12082,70.2919565 L122.717673,69.1272508 C122.690581,69.0490908 122.616955,68.9966682 122.534233,68.9966385 L117.287496,68.9966385 Z" id="路径" fill="#B9C7DD"></path>
                    <path d="M92.0601125,76.3972045 L92.5274993,76.3972045 L91.5927147,13.9231474 L91.1253261,13.9231474 L91.1439728,15.1695147 L80.6683882,15.1695147 L80.6870331,13.9231474 L80.2196463,13.9231474 L79.2848617,76.3972045 L79.7522503,76.3972045 L79.8128599,72.3465197 L91.9994957,72.3465197 L92.0601125,76.3972045 Z M91.3864163,31.3722612 L80.4259537,31.3722612 L80.5401723,23.7382766 L91.2721959,23.7382766 L91.3864163,31.3722612 Z M91.393415,31.8396499 L91.5076336,39.4736327 L80.3047311,39.4736327 L80.4189515,31.8396499 L91.393415,31.8396499 Z M91.5146322,39.9410213 L91.6288526,47.5750059 L80.1835175,47.5750059 L80.2977379,39.9410213 L91.5146322,39.9410213 Z M91.6358494,48.0423927 L91.7500698,55.6763773 L80.0623002,55.6763773 L80.1765206,48.0423927 L91.6358494,48.0423927 Z M91.7570667,56.143766 L91.8712871,63.7777596 L79.9410739,63.7777596 L80.0552943,56.143766 L91.7570667,56.143766 Z M91.1509787,15.6369034 L91.2651991,23.270888 L80.547171,23.270888 L80.6613914,15.6369034 L91.1509787,15.6369034 Z M79.8198639,71.8791311 L79.9340844,64.2451465 L91.8782857,64.2451465 L91.9925061,71.8791311 L79.8198639,71.8791311 Z" id="形状" fill="#3F3D56"></path>
                    <circle id="椭圆形" fill="#475264" cx="83.5908209" cy="27.8199746" r="7.62128435"></circle>
                    <polygon id="矩形" fill="#475264" transform="translate(87.304043, 35.334121) rotate(-10.261060) translate(-87.304043, -35.334121) " points="86.1463794 33.2599719 88.4617063 33.2599719 88.4617063 37.4082694 86.1463794 37.4082694"></polygon>
                    <polygon id="矩形" fill="#475264" transform="translate(82.747461, 36.158983) rotate(-10.261060) translate(-82.747461, -36.158983) " points="81.5897977 34.0848339 83.9051247 34.0848339 83.9051247 38.2331314 81.5897977 38.2331314"></polygon>
                    <ellipse id="椭圆形" fill="#475264" transform="translate(82.719627, 38.713075) rotate(-40.261060) translate(-82.719627, -38.713075) " cx="82.719627" cy="38.7130746" rx="1.92943673" ry="1"></ellipse>
                    <ellipse id="椭圆形" fill="#475264" transform="translate(87.181292, 37.905379) rotate(-40.261060) translate(-87.181292, -37.905379) " cx="87.1812923" cy="37.9053788" rx="1.92944218" ry="1"></ellipse>
                    <circle id="椭圆形" fill="#FFFFFF" cx="83.0572662" cy="25.9557642" r="2.60474195"></circle>
                    <circle id="椭圆形" fill="#3F3D56" cx="81.9867229" cy="25.0221061" r="1"></circle>
                    <path d="M89.6029478,19.5288327 C89.7175546,16.7073197 87.2858268,14.3174766 84.1715102,14.1909769 C81.0571937,14.0644771 78.4396426,16.2492082 78.3250286,19.0707229 C78.2104145,21.8922376 80.3752617,22.5333007 83.4895728,22.6598113 C86.6038839,22.786322 89.4883392,22.3503438 89.6029478,19.5288327 Z" id="路径" fill="#75A9FF"></path>
                    <ellipse id="椭圆形" fill="#475264" transform="translate(76.553612, 26.431503) rotate(-77.089900) translate(-76.553612, -26.431503) " cx="76.5536119" cy="26.4315027" rx="1.19627755" ry="3.81064127"></ellipse>
                    <ellipse id="椭圆形" fill="#475264" transform="translate(91.513909, 28.919387) rotate(-77.089900) translate(-91.513909, -28.919387) " cx="91.5139088" cy="28.9193867" rx="1.19627755" ry="3.81064127"></ellipse>
                    <path d="M85.6840091,30.8234304 C85.7957007,31.4340397 85.5729609,32.0578311 85.0997765,32.4595963 C84.6265922,32.8613615 83.9749359,32.9799908 83.390523,32.7707535 C82.80611,32.5615163 82.3778313,32.0562381 82.2671746,31.4454404 L82.2665669,31.4420862 C82.0957279,30.4983855 82.825366,30.1644444 83.7690721,29.9936073 C84.7127782,29.8227701 85.5131773,29.8797297 85.6840091,30.8234304 Z" id="路径" fill="#FFFFFF"></path>
                    <path d="M57.7778617,53.7047095 C58.5481194,51.689486 58.6596814,49.8598014 58.0270424,49.6179944 C57.3944034,49.3761875 56.257131,50.8138256 55.4868733,52.8290491 C54.7166156,54.8442726 54.6050536,56.6739573 55.2376926,56.9157642 C55.8703316,57.1575712 57.0076041,55.719933 57.7778617,53.7047095 Z" id="椭圆形" fill="#475264"></path>
                    <circle id="椭圆形" fill="#475264" transform="translate(49.411116, 59.166571) rotate(-80.782520) translate(-49.411116, -59.166571) " cx="49.4111161" cy="59.1665707" r="7.8126712"></circle>
                    <rect id="矩形" fill="#475264" x="45.8509116" y="65.2980263" width="2.37346757" height="4.2524644"></rect>
                    <rect id="矩形" fill="#475264" x="50.5978467" y="65.2980263" width="2.37346757" height="4.2524644"></rect>
                    <ellipse id="椭圆形" fill="#475264" cx="47.8288054" cy="69.5999401" rx="1.97789388" ry="1"></ellipse>
                    <ellipse id="椭圆形" fill="#475264" cx="52.5757406" cy="69.5010485" rx="1.97789388" ry="1"></ellipse>
                    <path d="M41.8325678,51.9010141 C41.2017324,49.0758367 43.2182676,46.221112 46.336624,45.5248073 C49.4549805,44.8285025 52.4943057,46.5543002 53.1251392,49.3794794 C53.7559728,52.2046585 51.6893279,53.2466268 48.5709714,53.9429261 C45.452615,54.6392254 42.4634032,54.7261896 41.8325678,51.9010141 Z" id="路径" fill="#75A9FF"></path>
                    <path d="M44.1409312,57.2154386 C44.4311638,56.6035009 43.08624,55.3579612 41.1369598,54.4334479 C39.1876796,53.5089345 37.3721958,53.2555419 37.0819632,53.8674796 C36.7917306,54.4794173 38.1366545,55.724957 40.0859347,56.6494703 C42.0352149,57.5739837 43.8506987,57.8273763 44.1409312,57.2154386 Z" id="椭圆形" fill="#475264"></path>
                    <circle id="椭圆形" fill="#475264" cx="15.5829116" cy="67.0772209" r="7.81266757"></circle>
                    <rect id="矩形" fill="#475264" x="12.0227102" y="73.2086839" width="2.37346757" height="4.2524644"></rect>
                    <rect id="矩形" fill="#475264" x="16.7696454" y="73.2086839" width="2.37346757" height="4.2524644"></rect>
                    <ellipse id="椭圆形" fill="#475264" cx="14.0005932" cy="77.5105959" rx="1.97789388" ry="1"></ellipse>
                    <ellipse id="椭圆形" fill="#475264" cx="18.7475392" cy="77.4117007" rx="1.97789388" ry="1"></ellipse>
                    <circle id="椭圆形" fill="#FFFFFF" cx="15.7807039" cy="65.0993342" r="2.67015329"></circle>
                    <circle id="椭圆形" fill="#3F3D56" cx="15.7807039" cy="65.0993342" r="1"></circle>
                    <path d="M8.00435556,59.8116698 C7.37352018,56.9864925 9.39005533,54.1317732 12.5084118,53.4354685 C15.6267683,52.7391637 18.6660916,54.4649669 19.296927,57.2901442 C19.9277624,60.1153215 17.8611138,61.1572989 14.7427574,61.8535909 C11.6244009,62.549883 8.6352,62.636858 8.00435556,59.8116698 Z" id="路径" fill="#DCE4F0"></path>
                    <ellipse id="椭圆形" fill="#475264" transform="translate(20.134009, 38.728482) rotate(-69.082170) translate(-20.134009, -38.728482) " cx="20.134009" cy="38.7284817" rx="3.90633832" ry="1.22631655"></ellipse>
                    <circle id="椭圆形" fill="#475264" transform="translate(12.912756, 44.628170) rotate(-80.782520) translate(-12.912756, -44.628170) " cx="12.9127561" cy="44.6281702" r="7.8126712"></circle>
                    <rect id="矩形" fill="#475264" x="9.35255329" y="50.7596263" width="2.37346757" height="4.2524644"></rect>
                    <rect id="矩形" fill="#475264" x="14.0994884" y="50.7596263" width="2.37346757" height="4.2524644"></rect>
                    <ellipse id="椭圆形" fill="#475264" cx="11.3304472" cy="55.0615401" rx="1.97789388" ry="1"></ellipse>
                    <ellipse id="椭圆形" fill="#475264" cx="16.0773823" cy="54.9626485" rx="1.97789388" ry="1"></ellipse>
                    <circle id="椭圆形" fill="#FFFFFF" cx="13.1105469" cy="42.6502766" r="2.67015329"></circle>
                    <circle id="椭圆形" fill="#3F3D56" cx="13.1105469" cy="42.6502766" r="1"></circle>
                    <path d="M5.33420952,37.3626014 C4.70337415,34.537424 6.7199093,31.6826993 9.83826576,30.9863946 C12.9566222,30.2900898 15.9959474,32.0158875 16.626781,34.8410667 C17.2576145,37.6662458 15.1909696,38.7082141 12.0726132,39.4045134 C8.95425669,40.1008127 5.9650449,40.1877896 5.33420952,37.3626014 Z" id="路径" fill="#75A9FF"></path>
                    <ellipse id="椭圆形" fill="#475264" transform="translate(4.113089, 41.003060) rotate(-64.625740) translate(-4.113089, -41.003060) " cx="4.11308855" cy="41.0030595" rx="1.22631655" ry="3.90633651"></ellipse>
                    <path d="M9.07519637,47.4466612 C9.07519637,48.2113143 11.0440435,49.7212317 13.2287655,49.7212317 C15.4134875,49.7212317 17.4618975,47.568488 17.4618975,46.8038458 C17.4618975,46.0392036 15.4134748,46.9521905 13.2287655,46.9521905 C11.0440562,46.9521905 9.07519637,46.6820082 9.07519637,47.4466612 Z" id="路径" fill="#FFFFFF"></path>
                    <path d="M20.5938794,14.7970413 C20.2934522,14.7973692 20.0496617,15.0408318 20.0496617,15.341259 L20.0496617,37.83559 C20.0496617,38.1360172 20.2934522,38.3794798 20.5938794,38.3798077 L72.6573714,38.3798077 C72.9577986,38.3794798 73.2015891,38.1360172 73.2015891,37.83559 L73.2015891,15.341259 C73.2015891,15.0408318 72.9577986,14.7973692 72.6573714,14.7970413 L20.5938794,14.7970413 Z" id="路径" fill="#75A9FF"></path>
                    <circle id="椭圆形" fill="#FFFFFF" cx="34.6518204" cy="26.5884245" r="5.28273923"></circle>
                    <path d="M46.5748027,25.8855637 C46.2376386,25.8911062 45.9672163,26.1660103 45.9672163,26.50322 C45.9672163,26.8404296 46.2376386,27.1153337 46.5748027,27.1208762 L63.2542875,27.1208762 C63.4750686,27.1246763 63.6810886,27.010341 63.7946701,26.820979 C63.9082516,26.631617 63.9121198,26.3960287 63.8048162,26.2030399 C63.6975127,26.0100511 63.4953573,25.8890138 63.2745705,25.8855637 C63.2678089,25.8854488 63.2610479,25.8854488 63.2542875,25.8855637 L46.5748027,25.8855637 Z" id="b71acdfd-6a55-428e-917a-53f192cb0203" fill="#FFFFFF"></path>
                    <path d="M46.5748027,22.3069333 C46.2376386,22.3124758 45.9672163,22.5873799 45.9672163,22.9245896 C45.9672163,23.2617992 46.2376386,23.5367034 46.5748027,23.5422458 L54.9041578,23.5422458 C55.1249432,23.5460523 55.3309699,23.4317182 55.4445552,23.2423534 C55.5581406,23.0529886 55.5620085,22.817395 55.4547006,22.6244037 C55.3473927,22.4314123 55.1452303,22.3103766 54.924439,22.3069333 C54.9176786,22.3068184 54.9109182,22.3068184 54.9041578,22.3069333 L46.5748027,22.3069333 Z" id="ad4fbcfa-41b0-45f9-a593-23b6dc3fe165" fill="#FFFFFF"></path>
                    <path d="M46.5748027,29.634605 C46.2376386,29.6401474 45.9672163,29.9150516 45.9672163,30.2522612 C45.9672163,30.5894709 46.2376386,30.864375 46.5748027,30.8699175 L63.2542875,30.8699175 C63.4750686,30.8737176 63.6810886,30.7593823 63.7946701,30.5700203 C63.9082516,30.3806583 63.9121198,30.14507 63.8048162,29.9520812 C63.6975127,29.7590924 63.4953573,29.6380551 63.2745705,29.634605 C63.2678089,29.6344841 63.2610479,29.6344841 63.2542875,29.634605 L46.5748027,29.634605 Z" id="bce2a7cd-a325-424d-9b3a-f63d1dad5aba" fill="#FFFFFF"></path>
                    <ellipse id="椭圆形" fill="#475264" transform="translate(126.186422, 67.593666) rotate(-20.917830) translate(-126.186422, -67.593666) " cx="126.186422" cy="67.5936661" rx="1.22631655" ry="3.90633832"></ellipse>
                    <circle id="椭圆形" fill="#475264" transform="translate(131.775022, 75.126007) rotate(-9.217470) translate(-131.775022, -75.126007) " cx="131.775022" cy="75.1260073" r="7.81266757"></circle>
                    <polygon id="路径" fill="#475264" points="135.335147 81.2575057 132.961814 81.2575057 133.426213 86.3501134 135.33932 85.8303855"></polygon>
                    <polygon id="路径" fill="#475264" points="130.160907 81.2707483 127.787392 81.2707483 128.251791 86.363356 130.078549 85.8303855"></polygon>
                    <ellipse id="椭圆形" fill="#475264" transform="translate(128.130260, 85.862880) rotate(-4.181640) translate(-128.130260, -85.862880) " cx="128.13026" cy="85.8628798" rx="1.97789388" ry="1"></ellipse>
                    <circle id="椭圆形" fill="#FFFFFF" cx="131.577232" cy="73.1481107" r="2.67015329"></circle>
                    <circle id="椭圆形" fill="#3F3D56" cx="131.577232" cy="73.1481107" r="1"></circle>
                    <ellipse id="椭圆形" fill="#475264" transform="translate(140.030477, 69.686844) rotate(-53.549900) translate(-140.030477, -69.686844) " cx="140.030477" cy="69.6868438" rx="3.90633651" ry="1.22631655"></ellipse>
                    <path d="M127.963171,79.1544054 C127.963171,78.5242014 129.585847,77.2797569 131.386445,77.2797569 C133.187044,77.2797569 134.875294,79.0539973 134.875294,79.6841977 C134.875294,80.3143982 133.187031,79.5619302 131.386445,79.5619302 C129.585859,79.5619302 127.963171,79.7846132 127.963171,79.1544054 Z" id="路径" fill="#FFFFFF"></path>
                    <path d="M153.682848,68.6696998 L110.917219,62.7411592 C110.223013,62.6440653 109.738363,62.0034167 109.833774,61.3089778 L114.641373,26.6292898 C114.738438,25.9350672 115.379107,25.4504012 116.073555,25.5458449 L158.83918,31.4743873 C159.533403,31.5714514 160.01807,32.2121211 159.922625,32.9065687 L155.115029,67.5862567 C155.017937,68.2804627 154.377287,68.7651132 153.682848,68.6696998 L153.682848,68.6696998 Z" id="路径" fill="#75A9FF"></path>
                    <path d="M138.362324,57.846634 L116.529313,54.819951 C116.501927,54.8165161 116.474915,54.810565 116.44862,54.8021732 L129.254159,38.3475229 C129.413902,38.1385273 129.673743,38.0316522 129.934305,38.0677732 C130.194866,38.1038942 130.415836,38.2774231 130.512702,38.5219918 L135.778792,51.485678 L136.031176,52.1060481 L138.362324,57.846634 Z" id="路径" fill="#FFFFFF"></path>
                    <polygon id="路径" fill="#000000" opacity="0.2" points="138.362268 57.8465306 130.907937 56.8132426 135.304127 52.0052608 135.62068 51.6589569 135.778866 51.4857143 136.031202 52.1061224"></polygon>
                    <path d="M150.518786,59.5318676 L131.635024,56.9140372 L136.031176,52.1060553 L136.347595,51.7596644 L142.07625,45.493883 C142.276435,45.3035126 142.548038,45.2070949 142.823449,45.228631 C143.09886,45.250167 143.352173,45.387631 143.520334,45.6068045 C143.541269,45.6372801 143.56024,45.6690591 143.577132,45.7019483 L150.518786,59.5318676 Z" id="路径" fill="#FFFFFF"></path>
                    <circle id="椭圆形" fill="#FFFFFF" cx="138.627849" cy="40.6682141" r="3.26530612"></circle>
                    <polygon id="矩形" fill="#475264" transform="translate(118.505608, 30.462327) rotate(7.892770) translate(-118.505608, -30.462327) " points="116.510137 28.4668555 120.501079 28.4668555 120.501079 32.4577981 116.510137 32.4577981"></polygon>
                    <path d="M139.353569,67.8604408 C139.984405,65.0352635 137.967869,62.1805388 134.849513,61.484234 C131.731156,60.7879293 128.691833,62.513727 128.060998,65.3389043 C127.430162,68.1640816 129.496811,69.2060535 132.615167,69.902351 C135.733524,70.5986485 138.722736,70.6856236 139.353569,67.8604408 Z" id="路径" fill="#F2F2F2"></path>
                    <ellipse id="椭圆形" fill="#475264" transform="translate(133.335248, 85.850321) rotate(-4.181640) translate(-133.335248, -85.850321) " cx="133.335248" cy="85.8503205" rx="1.97789388" ry="1"></ellipse>
                </g>
            </g>
        </g>
    </g>
</svg>
