<?xml version="1.0" standalone="no"?><!DOCTYPE svg PUBLIC "-//W3C//DTD SVG 1.1//EN" "http://www.w3.org/Graphics/SVG/1.1/DTD/svg11.dtd"><svg t="1599730024872" class="icon" viewBox="0 0 1024 1024" version="1.1" xmlns="http://www.w3.org/2000/svg" p-id="2543" xmlns:xlink="http://www.w3.org/1999/xlink" width="200" height="200"><defs><style type="text/css"></style></defs><path d="M819.40992 310.67136A410.8032 410.8032 0 1 1 461.824 102.4c1.69472 0 3.35872 0.10752 5.0432 0.128L466.944 102.4H972.8v208.27136h-153.39008zM875.52 174.08H424.96l0.14336-0.24576A340.95104 340.95104 0 1 0 667.3152 240.64h101.94944c0.21504 0.23552 0.44544 0.45568 0.65536 0.69632v-0.08704h107.67872z m-194.56 440.80128l-201.99424 0.26112c-55.38304 94.02368-193.536 29.696-218.88512 20.66432 21.8624-7.54176 119.96672-119.49056 119.96672-119.49056C380.05248 361.63072 524.31872 322.56 524.31872 322.56v164.70528l-0.03072 16.60416c104.7808 21.48864 156.672 111.01184 156.672 111.01184zM461.12256 481.43872a51.2 51.2 0 1 0 51.2 51.2 51.2 51.2 0 0 0-51.2-51.2z m-204.74368 154.19392c-1.1264-1.29024 0.31232-1.024 3.70176 0.17408a3.37408 3.37408 0 0 1-3.70176-0.17408z" p-id="2544"></path></svg>