
<?xml version="1.0" standalone="no"?><!DOCTYPE svg PUBLIC "-//W3C//DTD SVG 1.1//EN" "http://www.w3.org/Graphics/SVG/1.1/DTD/svg11.dtd"><svg t="1600751829020" class="icon" viewBox="0 0 1290 1024" version="1.1" xmlns="http://www.w3.org/2000/svg" p-id="8886" xmlns:xlink="http://www.w3.org/1999/xlink" width="18.896484375" height="15"><defs><style type="text/css"></style></defs><path d="M1089.981343 497.065664h-72.800036L816.472523 1024h75.192015l50.681997-144.233228h219.409711l53.741866 144.233228h75.192015zM963.781152 820.231347l78.919775-219.00587q4.752893-12.938432 8.496185-36.733964h1.708556q4.426714 26.18751 8.170007 36.733964l79.603197 219.00587zM487.854991 0H0v193.548379h52.328424c12.223945-84.759931 61.818678-123.031596 133.764436-123.031595h178.792665V843.405585q0 86.763602-22.552945 106.101354t-102.264869 19.415415h-3.572436v55.062114h502.672835v-55.062114h-3.572436q-79.696391 0-102.249336-19.430947t-22.552945-106.101354V70.516784h178.777132c71.945758 0 121.556024 38.271664 133.764436 123.031595h52.328424V0z" p-id="8887"></path></svg>
